<?xml version="1.0" standalone="no"?>
<!DOCTYPE svg PUBLIC "-//W3C//DTD SVG 20010904//EN"
 "http://www.w3.org/TR/2001/REC-SVG-20010904/DTD/svg10.dtd">
<svg version="1.0" xmlns="http://www.w3.org/2000/svg"
 width="1024.000000pt" height="1024.000000pt" viewBox="0 0 1024.000000 1024.000000"
 preserveAspectRatio="xMidYMid meet">
<metadata>
Created by potrace 1.14, written by Peter Selinger 2001-2017
</metadata>
<g transform="translate(0.000000,1024.000000) scale(0.100000,-0.100000)"
fill="#000000" stroke="none">
<path d="M1135 10224 c-33 -8 -73 -22 -90 -31 -16 -9 -31 -16 -33 -14 -8 7
-117 -64 -166 -110 -47 -43 -140 -167 -141 -188 -1 -3 -9 -21 -18 -38 -10 -18
-15 -33 -11 -33 4 0 1 -7 -6 -15 -6 -8 -9 -19 -6 -24 4 -5 3 -12 -2 -15 -13
-8 -17 -62 -16 -226 1 -185 7 -320 14 -320 3 0 7 -19 8 -42 1 -24 4 -54 8 -68
3 -14 7 -41 10 -60 7 -54 44 -230 59 -283 8 -26 14 -48 13 -50 0 -1 8 -29 18
-62 10 -33 18 -62 19 -65 5 -25 73 -217 91 -257 8 -17 14 -33 14 -36 0 -2 9
-25 20 -51 12 -25 21 -48 21 -51 -2 -24 219 -431 300 -553 27 -40 49 -78 49
-83 0 -5 5 -9 10 -9 6 0 10 -7 10 -15 0 -8 5 -15 10 -15 6 0 10 -4 10 -10 0
-5 6 -18 14 -27 8 -10 56 -74 107 -143 78 -105 147 -193 194 -246 6 -6 30 -35
55 -64 95 -110 171 -191 351 -370 191 -190 271 -265 434 -405 25 -22 67 -59
93 -82 26 -24 50 -43 54 -43 4 0 17 -11 30 -24 13 -12 82 -70 153 -126 72 -57
133 -109 137 -114 4 -6 8 -8 8 -3 0 4 8 -1 18 -10 10 -10 30 -27 46 -38 31
-23 133 -100 156 -118 8 -7 31 -23 50 -37 19 -13 37 -27 40 -30 3 -3 30 -23
60 -45 30 -22 61 -45 68 -52 7 -7 17 -13 21 -13 5 0 24 -13 42 -30 19 -16 39
-30 46 -30 6 0 13 -4 15 -8 2 -5 37 -32 79 -61 42 -29 86 -61 98 -72 11 -11
21 -17 21 -14 0 2 19 -10 43 -28 24 -17 80 -57 125 -87 45 -30 82 -58 82 -63
0 -4 -10 -12 -22 -17 -13 -5 -36 -20 -52 -34 -16 -14 -35 -26 -42 -26 -7 0
-14 -4 -16 -8 -1 -4 -25 -23 -53 -42 -27 -19 -56 -41 -63 -47 -7 -7 -16 -13
-20 -13 -4 0 -22 -13 -41 -29 -19 -17 -38 -28 -43 -25 -4 3 -8 1 -8 -4 0 -6
-23 -25 -51 -43 -28 -18 -56 -37 -62 -43 -11 -11 -192 -143 -240 -176 -33 -22
-220 -163 -233 -175 -6 -6 -47 -37 -90 -70 -43 -33 -83 -65 -89 -71 -5 -6 -30
-26 -55 -45 -25 -18 -47 -36 -50 -39 -3 -3 -30 -25 -60 -50 -85 -70 -101 -83
-126 -108 -13 -12 -26 -22 -29 -22 -3 0 -13 -8 -23 -17 -10 -10 -36 -34 -58
-53 -177 -158 -262 -238 -414 -390 -96 -97 -204 -208 -240 -249 -36 -40 -80
-89 -97 -108 -18 -19 -33 -37 -33 -40 0 -2 -6 -10 -12 -17 -86 -88 -295 -371
-415 -561 -55 -86 -138 -231 -135 -237 1 -5 -2 -8 -6 -8 -5 0 -14 -16 -22 -35
-8 -19 -17 -35 -22 -35 -4 0 -8 -4 -8 -10 0 -9 -73 -169 -91 -200 -11 -18 -13
-24 -56 -135 -19 -49 -41 -105 -49 -123 -9 -18 -16 -42 -17 -52 -1 -11 -4 -20
-7 -20 -4 0 -7 -6 -7 -12 0 -7 -15 -60 -33 -118 -18 -58 -33 -115 -33 -127 -1
-13 -4 -23 -7 -23 -3 0 -6 -10 -7 -21 -1 -12 -11 -60 -22 -108 -11 -47 -22
-106 -25 -131 -3 -25 -8 -56 -11 -70 -3 -14 -8 -50 -11 -80 -3 -30 -8 -71 -10
-90 -2 -19 -6 -116 -9 -215 -4 -141 -1 -193 10 -240 9 -33 17 -65 18 -71 2 -7
20 -46 41 -88 26 -54 58 -98 109 -149 64 -64 177 -148 177 -130 0 3 8 -1 17
-10 10 -8 23 -16 28 -17 6 0 28 -6 50 -12 22 -6 47 -13 55 -15 36 -10 210 -12
241 -3 19 6 48 13 64 15 17 3 68 24 115 47 104 51 218 160 265 253 17 33 33
62 38 63 4 2 7 11 7 20 0 10 7 37 15 61 13 36 22 93 24 160 1 9 12 12 41 9 22
-2 40 -1 40 2 0 6 128 3 146 -4 8 -3 16 -2 18 3 3 4 26 5 51 1 25 -4 45 -4 45
-1 0 4 27 4 61 1 33 -3 62 -3 64 1 3 3 23 3 45 -1 22 -4 43 -4 45 0 3 4 20 4
39 0 19 -4 39 -4 46 0 7 4 27 4 46 0 19 -4 36 -5 39 0 2 4 25 4 50 0 25 -4 45
-4 45 -1 0 4 27 4 61 1 33 -3 62 -3 64 1 3 3 23 3 45 -1 22 -4 43 -4 45 0 3 4
19 5 37 1 18 -4 52 -4 76 -1 23 4 42 4 42 1 0 -7 138 -4 157 3 7 3 13 2 13 -3
0 -5 18 -5 40 -1 22 4 40 4 40 0 0 -4 18 -4 40 0 22 4 40 4 40 0 0 -4 18 -4
40 0 22 4 40 4 40 0 0 -4 18 -4 40 0 22 4 40 4 40 0 0 -4 18 -4 40 0 22 4 40
4 40 0 0 -4 18 -4 40 0 22 4 40 4 40 0 0 -4 17 -4 38 -1 20 4 46 6 57 5 35 -3
89 -5 148 -4 32 0 62 -2 67 -5 6 -3 10 -2 10 3 0 4 21 6 48 2 26 -3 61 -3 77
0 17 3 44 3 61 -1 18 -3 37 -3 44 1 7 4 26 4 44 0 17 -4 40 -4 51 0 11 4 29 4
40 0 11 -4 29 -4 40 0 11 4 31 4 44 0 14 -3 45 -3 68 0 24 4 46 4 48 0 3 -4
22 -4 42 0 21 3 49 3 63 0 14 -4 34 -4 45 0 11 4 32 4 46 0 15 -4 32 -4 39 0
7 4 24 4 39 0 14 -4 35 -4 46 0 11 4 24 5 28 3 12 -7 185 -5 197 2 5 3 10 2
10 -3 0 -5 17 -6 40 -2 22 4 40 4 40 0 0 -4 18 -4 40 0 22 4 40 4 40 0 0 -4
18 -4 40 0 22 4 40 4 40 0 0 -4 18 -4 40 0 22 4 40 4 40 0 0 -4 18 -4 40 0 22
4 40 4 40 0 0 -4 18 -4 40 0 23 4 40 3 40 -2 0 -5 4 -7 9 -3 12 7 159 10 166
3 3 -3 22 -2 43 1 20 4 52 4 70 0 18 -3 34 -3 37 1 2 4 25 4 50 0 25 -4 45 -4
45 -1 0 4 27 4 61 1 33 -3 62 -3 64 1 3 3 23 3 45 -1 22 -4 43 -4 45 0 3 4 20
4 39 0 19 -4 39 -4 46 0 7 4 27 4 46 0 19 -4 36 -5 39 0 2 4 25 4 50 0 25 -4
45 -4 45 -1 0 4 27 4 61 1 33 -3 62 -3 64 1 3 3 23 3 45 -1 22 -4 43 -4 45 0
3 4 19 5 37 1 18 -4 52 -4 76 -1 23 4 42 4 42 1 0 -7 138 -4 157 3 7 3 13 2
13 -3 0 -5 18 -5 40 -1 22 4 40 4 40 0 0 -4 18 -4 40 0 22 4 40 4 40 0 0 -4
18 -4 40 0 22 4 40 4 40 0 0 -4 18 -4 40 0 22 4 40 4 40 0 0 -4 18 -4 40 0 22
4 40 4 40 0 0 -4 18 -4 40 0 22 4 40 4 40 0 0 -4 17 -4 38 -1 20 4 46 6 57 5
35 -3 89 -5 148 -4 32 0 62 -2 67 -5 6 -3 10 -2 10 3 0 4 21 6 48 2 26 -3 61
-3 77 0 17 3 44 3 61 -1 18 -3 37 -3 44 1 7 4 27 4 46 0 19 -4 36 -4 39 0 3 4
20 4 39 0 19 -4 37 -5 40 -2 4 3 6 1 6 -4 4 -71 10 -117 20 -154 7 -25 12 -46
11 -47 0 -2 18 -39 41 -84 28 -57 61 -102 112 -153 63 -63 176 -147 176 -129
0 3 9 -2 21 -13 12 -10 24 -18 28 -17 3 1 24 -3 46 -9 22 -6 47 -13 55 -15 36
-10 210 -12 241 -3 19 6 48 13 64 15 17 3 68 24 115 47 151 74 271 218 326
393 16 50 19 90 18 235 0 96 -3 204 -7 240 -4 36 -9 83 -11 105 -2 22 -7 60
-11 85 -4 25 -8 54 -10 65 -1 11 -7 45 -13 75 -6 30 -14 66 -17 80 -13 67 -37
168 -45 195 -5 17 -23 75 -40 130 -29 94 -56 171 -85 240 -6 17 -25 62 -41
100 -79 194 -246 498 -390 709 -69 100 -193 270 -236 321 -20 25 -126 152
-153 184 -137 163 -457 486 -641 647 -31 27 -64 56 -74 64 -126 111 -153 134
-221 190 -24 19 -84 69 -134 110 -51 41 -107 86 -125 100 -18 14 -56 43 -84
66 -28 22 -96 74 -151 115 -109 81 -131 98 -150 117 -8 6 -16 12 -20 12 -3 0
-29 18 -58 39 l-51 39 -61 -41 c-33 -23 -70 -50 -82 -61 -13 -11 -23 -15 -23
-10 0 5 -4 4 -8 -2 -4 -6 -50 -39 -102 -75 -52 -35 -99 -68 -105 -72 -5 -4
-172 -116 -370 -249 -198 -132 -364 -244 -369 -249 -10 -9 31 -48 52 -49 6 0
12 -3 12 -7 0 -5 17 -19 38 -33 46 -31 245 -173 252 -180 3 -3 28 -21 55 -40
28 -19 52 -38 53 -42 2 -5 8 -6 13 -2 5 3 9 1 9 -4 0 -5 22 -24 50 -43 27 -19
50 -37 50 -40 0 -3 -48 -7 -106 -7 -58 0 -108 -3 -111 -5 -2 -3 -17 -2 -31 3
-15 4 -37 4 -48 0 -11 -5 -27 -4 -34 0 -7 5 -23 4 -36 0 -12 -5 -25 -6 -28 -3
-8 8 -256 9 -256 1 0 -4 -13 -3 -30 2 -18 5 -32 5 -36 -1 -3 -5 -10 -6 -16 -3
-5 3 -47 6 -91 5 -45 -1 -91 -1 -102 -1 -11 1 -27 1 -35 1 -8 -1 -28 -1 -45 0
-16 0 -36 0 -42 0 -18 -1 -39 -1 -65 -1 -13 0 -34 -1 -48 -3 -14 -2 -37 0 -51
4 -15 4 -32 3 -39 -1 -7 -5 -23 -5 -34 0 -11 4 -33 4 -48 -1 -16 -4 -28 -5
-28 -1 0 8 -123 7 -136 0 -5 -3 -18 -2 -29 2 -11 4 -30 4 -42 -1 -12 -5 -25
-4 -28 1 -3 5 -18 5 -35 0 -17 -5 -30 -6 -30 -2 0 8 -198 7 -206 -1 -3 -3 -18
-2 -33 3 -16 4 -34 4 -40 0 -7 -4 -30 -4 -52 0 -21 4 -39 4 -39 0 0 -4 -16 -4
-35 0 -19 4 -37 4 -40 0 -4 -7 -58 -4 -82 5 -7 2 -15 0 -18 -5 -3 -5 -18 -5
-35 0 -17 5 -32 5 -35 0 -3 -6 -16 -5 -29 0 -13 5 -27 6 -30 3 -3 -4 -6 -3 -6
1 0 11 54 55 68 56 6 0 12 3 12 8 0 4 17 18 38 32 20 14 42 32 49 40 7 8 13
11 13 5 0 -6 4 -5 8 1 5 9 188 141 285 207 11 6 31 22 45 34 15 13 33 23 40
23 6 0 12 4 12 8 0 4 15 16 33 27 17 10 34 21 37 24 3 4 39 29 80 56 41 27 80
55 87 61 6 6 35 26 65 45 29 18 55 37 56 41 2 5 10 8 18 8 8 0 14 5 14 10 0 6
4 10 9 10 11 0 235 151 239 162 2 4 8 8 14 8 5 0 24 11 42 25 18 14 38 25 44
25 6 0 12 3 14 8 5 11 66 52 78 52 5 0 10 4 10 8 0 5 12 15 28 23 15 8 36 22
46 31 11 10 24 18 28 18 5 0 14 5 21 10 27 23 340 230 348 230 5 0 9 4 9 8 0
5 12 15 28 23 15 8 29 17 32 20 3 3 48 34 100 70 52 35 97 67 98 71 2 4 8 8
13 8 9 0 103 63 332 222 45 32 87 61 92 66 6 4 34 23 63 42 28 19 52 38 52 42
0 5 7 8 15 8 8 0 15 5 15 10 0 6 6 10 14 10 8 0 16 4 18 8 2 4 59 48 128 97
69 50 130 94 137 100 18 15 26 21 158 120 66 49 125 94 132 100 6 5 26 21 44
35 18 14 59 46 91 73 31 26 59 47 62 47 3 0 16 10 28 23 13 12 46 40 73 62 27
22 72 59 100 83 27 24 61 52 75 64 25 20 63 54 199 176 107 96 423 412 511
511 41 46 86 96 99 110 13 14 67 80 120 146 53 66 98 122 101 125 3 3 13 16
22 30 9 14 32 46 50 71 18 26 54 77 81 113 26 37 47 71 47 76 0 6 5 10 10 10
6 0 10 6 10 14 0 8 6 21 14 28 14 15 145 239 188 323 72 141 87 171 88 180 1
6 17 42 35 80 26 57 53 127 60 155 1 3 7 18 13 33 25 59 105 323 117 387 2 8
4 15 5 15 1 0 3 9 5 20 2 11 11 56 19 100 32 163 40 224 52 365 13 142 8 465
-6 465 -1 0 -3 8 -5 17 -6 32 -85 188 -95 188 -6 0 -10 6 -10 13 0 17 -93 106
-157 151 -29 20 -55 36 -57 36 -2 0 -21 8 -42 17 -22 9 -42 18 -46 19 -5 1 -9
2 -10 4 -2 1 -10 3 -18 5 -8 2 -28 6 -45 10 -103 24 -300 8 -367 -30 -15 -9
-29 -15 -30 -13 -8 8 -123 -68 -172 -113 -47 -43 -140 -167 -141 -188 -1 -3
-6 -15 -12 -26 -19 -35 -44 -132 -49 -191 -2 -32 -9 -61 -14 -64 -6 -4 -30 -4
-53 0 -23 3 -53 3 -67 0 -14 -4 -34 -4 -45 0 -11 4 -31 4 -45 0 -14 -3 -42 -3
-63 1 -20 3 -40 2 -43 -2 -3 -5 -10 -7 -15 -3 -5 3 -42 5 -82 4 -39 -1 -79 -1
-87 -1 -120 3 -192 1 -200 -4 -5 -3 -10 -2 -10 3 0 5 -17 6 -40 2 -22 -4 -40
-4 -40 0 0 4 -18 4 -40 0 -22 -4 -40 -4 -40 0 0 4 -18 4 -40 0 -22 -4 -40 -4
-40 0 0 4 -18 4 -40 0 -22 -4 -40 -4 -40 0 0 4 -18 4 -40 0 -22 -4 -40 -4 -40
0 0 4 -18 4 -40 0 -23 -4 -40 -3 -40 2 0 5 -4 7 -9 3 -12 -7 -159 -10 -166 -3
-3 3 -22 2 -43 -1 -20 -4 -52 -4 -70 0 -18 3 -34 3 -37 -1 -2 -4 -25 -4 -50 0
-25 4 -45 4 -45 1 0 -4 -27 -4 -61 -1 -33 3 -62 3 -64 -1 -3 -3 -23 -3 -45 1
-22 4 -43 4 -45 0 -3 -4 -20 -4 -39 0 -19 4 -39 4 -46 0 -7 -4 -27 -4 -46 0
-19 4 -36 5 -39 0 -2 -4 -25 -4 -50 0 -25 4 -45 4 -45 1 0 -4 -27 -4 -61 -1
-33 3 -62 3 -64 -1 -3 -3 -23 -3 -45 1 -22 4 -43 4 -45 0 -3 -4 -19 -5 -37 -1
-18 4 -52 4 -75 1 -24 -4 -43 -4 -43 -1 0 7 -138 4 -157 -3 -7 -3 -13 -2 -13
3 0 5 -18 5 -40 1 -22 -4 -40 -4 -40 0 0 4 -18 4 -40 0 -22 -4 -40 -4 -40 0 0
4 -18 4 -40 0 -22 -4 -40 -4 -40 0 0 4 -18 4 -40 0 -22 -4 -40 -4 -40 0 0 4
-18 4 -40 0 -22 -4 -40 -4 -40 0 0 4 -18 4 -40 0 -22 -4 -40 -4 -40 0 0 4 -17
4 -37 1 -21 -4 -47 -6 -58 -5 -35 3 -89 5 -148 4 -32 0 -62 2 -67 5 -6 3 -10
2 -10 -3 0 -4 -21 -6 -47 -2 -27 3 -61 3 -78 0 -16 -3 -44 -3 -61 1 -18 3 -37
3 -44 -1 -7 -4 -26 -4 -44 0 -17 4 -40 4 -51 0 -11 -4 -29 -4 -40 0 -11 4 -29
4 -40 0 -11 -4 -31 -4 -44 0 -14 3 -45 3 -68 0 -24 -4 -46 -4 -48 0 -3 4 -22
4 -42 0 -21 -3 -49 -3 -63 0 -14 4 -34 4 -45 0 -11 -4 -32 -4 -46 0 -15 4 -32
4 -39 0 -7 -4 -24 -4 -39 0 -14 4 -35 4 -46 0 -11 -4 -24 -5 -28 -3 -12 7
-185 5 -197 -2 -5 -3 -10 -2 -10 3 0 5 -17 6 -40 2 -22 -4 -40 -4 -40 0 0 4
-18 4 -40 0 -22 -4 -40 -4 -40 0 0 4 -18 4 -40 0 -22 -4 -40 -4 -40 0 0 4 -18
4 -40 0 -22 -4 -40 -4 -40 0 0 4 -18 4 -40 0 -22 -4 -40 -4 -40 0 0 4 -18 4
-40 0 -23 -4 -40 -3 -40 2 0 5 -4 7 -9 3 -12 -7 -159 -10 -166 -3 -3 3 -22 2
-43 -1 -20 -4 -52 -4 -70 0 -18 3 -34 3 -37 -1 -2 -4 -25 -4 -50 0 -25 4 -45
4 -45 1 0 -4 -27 -4 -61 -1 -33 3 -62 3 -64 -1 -3 -3 -23 -3 -45 1 -22 4 -43
4 -45 0 -3 -4 -20 -4 -39 0 -19 4 -39 4 -46 0 -7 -4 -27 -4 -46 0 -19 4 -36 5
-39 0 -2 -4 -25 -4 -50 0 -25 4 -45 4 -45 1 0 -4 -27 -4 -61 -1 -33 3 -62 3
-64 -1 -3 -3 -23 -3 -45 1 -22 4 -43 4 -45 0 -3 -4 -19 -5 -37 -1 -18 4 -52 4
-75 1 -24 -4 -43 -4 -43 -1 0 3 -20 5 -45 4 -35 -1 -45 2 -46 15 -3 62 -21
156 -35 191 -9 20 -17 41 -18 46 -4 20 -59 115 -68 115 -4 0 -8 6 -8 14 0 8
-31 43 -69 78 -68 63 -203 143 -259 153 -15 3 -38 8 -52 11 -51 13 -216 12
-275 -2z m1251 -1903 c4 7 10 7 16 1 7 -7 19 -7 34 -2 14 6 26 6 29 0 3 -6 15
-6 30 0 14 5 25 6 25 1 0 -5 16 -5 35 -1 19 4 35 4 35 -1 0 -5 11 -4 25 1 14
5 25 6 25 1 0 -5 12 -6 28 -2 15 4 39 4 55 0 15 -4 27 -4 27 1 0 6 9 6 23 1
14 -5 30 -5 40 0 11 7 17 6 17 0 0 -7 8 -7 25 -1 14 5 25 6 25 1 0 -5 12 -6
28 -2 15 4 39 4 55 0 16 -5 27 -4 27 2 0 6 4 7 10 4 15 -9 80 -12 80 -3 0 4
11 3 25 -2 16 -6 25 -6 25 0 0 6 9 6 23 2 22 -9 75 -7 84 2 3 3 16 1 29 -4 14
-6 26 -6 29 1 4 5 12 6 18 2 6 -4 21 -7 32 -7 11 0 26 3 32 7 6 4 14 3 18 -2
3 -6 15 -7 28 -2 12 5 32 5 44 0 14 -5 25 -4 29 2 3 6 10 6 17 1 7 -5 21 -6
32 -2 11 4 30 4 42 -1 13 -5 25 -4 28 2 4 5 12 6 18 2 6 -4 21 -7 32 -7 11 0
26 3 32 7 6 4 14 3 18 -2 3 -6 15 -7 28 -2 12 5 31 5 42 1 11 -4 24 -5 29 -2
15 8 67 8 73 -1 2 -4 9 -5 14 -1 14 8 113 9 127 0 6 -3 13 -2 17 4 4 7 12 7
23 1 10 -6 23 -6 34 0 10 6 19 5 23 -1 4 -6 11 -8 16 -4 14 8 113 9 127 0 6
-3 13 -2 17 4 4 7 12 7 23 1 10 -6 23 -6 34 0 10 6 19 5 23 -1 4 -7 12 -7 25
0 13 7 21 7 25 0 4 -7 12 -7 25 0 12 6 21 7 25 0 3 -5 15 -6 28 -1 12 5 34 5
49 0 16 -4 30 -3 33 2 4 5 14 5 25 -1 13 -7 21 -7 25 0 4 7 12 7 23 1 10 -6
23 -6 34 0 10 6 19 5 23 -1 3 -5 15 -6 28 -1 12 5 34 5 49 0 16 -4 30 -3 33 2
4 5 14 5 25 -1 13 -7 21 -7 25 0 4 6 13 7 23 1 11 -6 24 -6 34 0 10 6 19 6 23
0 3 -6 15 -7 28 -2 12 5 34 5 49 0 16 -4 30 -3 33 2 4 5 13 5 24 -1 10 -5 21
-7 24 -4 7 7 163 8 175 0 6 -3 13 -2 17 4 4 7 12 7 25 0 13 -7 21 -7 25 0 4 7
12 7 23 1 10 -6 23 -6 34 0 10 6 19 5 23 -1 3 -5 15 -6 28 -1 12 5 34 5 49 0
16 -4 30 -3 33 2 4 5 14 5 25 -1 13 -7 21 -7 25 0 4 7 12 7 23 1 10 -6 23 -6
34 0 10 6 19 5 23 -1 3 -5 15 -6 28 -1 12 5 34 5 49 0 16 -4 30 -3 33 2 4 5
14 5 25 -1 12 -6 21 -7 25 0 3 6 15 6 30 0 15 -6 27 -6 30 1 4 6 13 6 23 0 10
-6 23 -6 34 0 10 6 19 5 23 -1 4 -6 11 -8 16 -4 14 8 113 9 127 0 6 -3 13 -2
17 4 4 6 12 7 24 1 10 -6 23 -6 31 -1 8 5 18 6 24 3 14 -9 67 -9 73 0 2 4 13
3 23 -3 13 -7 21 -7 25 0 5 8 11 8 19 1 7 -6 15 -9 18 -6 8 8 184 9 196 1 6
-3 13 -2 17 4 4 7 12 7 25 0 13 -7 21 -7 25 0 4 7 12 7 23 1 10 -6 23 -6 34 0
10 6 19 5 23 -1 3 -5 15 -6 28 -1 12 5 34 5 49 0 16 -4 30 -3 33 2 4 5 14 5
25 -1 13 -7 21 -7 25 0 4 7 12 7 23 1 10 -6 23 -6 34 0 10 6 19 5 23 -1 3 -5
15 -6 28 -1 12 5 34 5 49 0 16 -4 30 -3 33 2 4 5 14 5 25 -1 12 -6 21 -7 25 0
3 6 15 6 30 0 15 -6 27 -6 30 1 4 6 13 6 23 0 10 -6 23 -6 34 0 10 6 19 5 23
-1 4 -6 11 -8 16 -4 14 8 113 9 127 0 6 -3 13 -2 17 4 4 6 12 7 24 1 10 -6 23
-6 31 -1 8 5 19 6 24 3 5 -4 22 -7 36 -7 14 0 31 3 36 7 5 3 16 2 24 -3 9 -5
19 -5 26 1 7 6 15 6 18 1 3 -5 28 -6 56 -2 27 4 50 4 50 1 0 -8 65 -5 79 3 5
4 12 2 16 -4 4 -7 12 -7 26 0 10 6 19 7 19 2 0 -5 12 -7 26 -4 l26 5 -28 -44
c-28 -45 -95 -140 -136 -193 -117 -152 -348 -419 -348 -402 0 4 -9 2 -19 -4
-13 -7 -22 -7 -26 0 -4 7 -12 7 -25 0 -13 -7 -21 -7 -25 0 -4 7 -11 7 -18 2
-7 -5 -21 -6 -32 -2 -11 4 -30 4 -42 -1 -15 -5 -23 -5 -23 2 0 6 -7 6 -19 -1
-14 -7 -22 -7 -26 0 -4 7 -11 7 -18 2 -7 -5 -21 -6 -32 -2 -11 4 -30 4 -42 -1
-15 -5 -23 -5 -23 2 0 6 -7 6 -19 -1 -14 -7 -22 -7 -26 0 -4 7 -11 7 -18 2 -7
-5 -21 -6 -32 -2 -11 4 -30 4 -42 -1 -15 -5 -23 -5 -23 2 0 6 -7 6 -19 -1 -14
-7 -22 -7 -26 0 -4 7 -11 7 -18 2 -7 -5 -21 -6 -32 -2 -11 4 -30 4 -42 -1 -15
-5 -23 -5 -23 2 0 6 -7 6 -19 -1 -14 -7 -22 -7 -26 0 -4 7 -11 7 -18 2 -7 -5
-21 -6 -32 -2 -11 4 -30 4 -42 -1 -15 -5 -23 -5 -23 2 0 6 -7 6 -19 -1 -14 -7
-22 -7 -26 0 -4 7 -11 7 -18 2 -7 -5 -21 -6 -32 -2 -11 4 -30 4 -42 -1 -15 -5
-23 -5 -23 2 0 6 -7 6 -19 -1 -14 -7 -22 -7 -26 0 -4 7 -11 7 -18 2 -7 -5 -21
-6 -32 -2 -11 4 -30 4 -42 -1 -15 -5 -23 -5 -23 2 0 6 -7 6 -19 -1 -14 -7 -22
-7 -26 0 -4 7 -11 7 -18 2 -7 -5 -21 -6 -32 -2 -11 4 -30 4 -42 -1 -15 -5 -23
-5 -23 2 0 6 -7 6 -19 -1 -14 -7 -22 -7 -26 0 -4 7 -11 7 -18 2 -7 -5 -21 -6
-32 -2 -11 4 -30 4 -42 -1 -15 -5 -23 -5 -23 2 0 6 -7 6 -19 -1 -14 -7 -22 -7
-26 0 -4 7 -11 7 -18 2 -7 -5 -21 -6 -32 -2 -11 4 -30 4 -42 -1 -15 -5 -23 -5
-23 2 0 6 -7 6 -19 -1 -14 -7 -22 -7 -26 0 -4 7 -11 7 -18 2 -7 -5 -21 -6 -32
-2 -11 4 -30 4 -42 -1 -15 -5 -23 -5 -23 2 0 6 -7 6 -19 -1 -14 -7 -22 -7 -26
0 -4 7 -11 7 -18 2 -7 -5 -21 -6 -32 -2 -11 4 -30 4 -42 -1 -15 -5 -23 -5 -23
2 0 6 -7 6 -19 -1 -14 -7 -22 -7 -26 0 -4 7 -11 7 -18 2 -7 -5 -21 -6 -32 -2
-11 4 -30 4 -42 -1 -15 -5 -23 -5 -23 2 0 6 -7 6 -19 -1 -14 -7 -22 -7 -27 1
-4 7 -10 7 -16 1 -7 -7 -19 -7 -33 -2 -13 5 -25 7 -28 4 -8 -8 -88 -10 -93 -2
-3 4 -16 3 -29 -2 -17 -6 -25 -6 -25 1 0 6 -5 7 -11 4 -16 -10 -69 -12 -75 -3
-3 4 -14 4 -24 -2 -13 -7 -21 -7 -25 0 -4 7 -12 7 -23 1 -9 -5 -23 -6 -32 -1
-9 5 -22 5 -30 0 -8 -5 -22 -4 -32 1 -10 5 -18 6 -18 2 0 -10 -47 -10 -56 0
-4 3 -15 2 -25 -3 -12 -7 -20 -7 -24 0 -4 7 -12 7 -23 1 -9 -5 -23 -6 -32 -1
-9 5 -22 5 -30 0 -8 -5 -22 -4 -32 1 -10 5 -18 6 -18 2 0 -10 -47 -10 -56 0
-4 3 -15 2 -25 -3 -12 -7 -20 -7 -24 0 -4 7 -12 7 -23 1 -9 -5 -23 -6 -32 -1
-9 5 -22 5 -30 0 -8 -5 -22 -4 -32 1 -10 5 -18 6 -18 2 0 -10 -47 -10 -56 0
-4 3 -15 2 -25 -3 -12 -7 -20 -7 -24 0 -4 7 -12 7 -23 1 -9 -5 -23 -6 -32 -1
-9 5 -22 5 -30 0 -8 -5 -22 -4 -32 1 -10 5 -18 6 -18 2 0 -10 -47 -10 -56 0
-4 3 -15 2 -25 -3 -12 -7 -20 -7 -24 0 -4 7 -12 7 -23 1 -9 -5 -23 -6 -32 -1
-9 5 -22 5 -30 0 -8 -5 -22 -4 -32 1 -10 5 -18 6 -18 2 0 -10 -47 -10 -56 0
-4 3 -15 2 -25 -3 -12 -7 -20 -7 -24 0 -4 7 -12 7 -23 1 -9 -5 -23 -6 -32 -1
-9 5 -22 5 -30 0 -8 -5 -22 -4 -32 1 -10 5 -18 6 -18 2 0 -10 -47 -10 -56 0
-4 3 -15 2 -25 -3 -12 -7 -20 -7 -24 0 -4 7 -12 7 -23 1 -9 -5 -23 -6 -32 -1
-9 5 -22 5 -30 0 -8 -5 -22 -4 -32 1 -10 5 -18 6 -18 2 0 -10 -47 -10 -56 0
-4 3 -15 2 -25 -3 -12 -7 -20 -7 -24 0 -4 7 -12 7 -23 1 -9 -5 -23 -6 -32 -1
-9 5 -22 5 -30 0 -8 -5 -22 -4 -32 1 -10 5 -18 6 -18 2 0 -10 -47 -10 -56 0
-4 3 -15 2 -25 -3 -12 -7 -20 -7 -24 0 -4 7 -12 7 -23 1 -10 -6 -23 -6 -34 0
-10 6 -19 5 -23 -1 -9 -14 -53 6 -84 39 -79 86 -104 115 -179 206 -46 55 -89
107 -96 115 -7 8 -31 40 -52 70 -21 30 -41 57 -45 60 -3 3 -27 37 -52 75 -44
68 -46 96 -6 74 12 -6 20 -5 25 2z m1634 -1601 c8 5 18 6 23 3 7 -4 87 -5 177
-2 8 0 24 0 35 -1 27 -1 87 -1 103 -1 17 1 38 1 65 1 12 0 33 1 47 3 14 2 37
0 51 -4 15 -4 32 -3 39 1 7 5 23 5 34 0 11 -4 33 -4 48 1 16 4 28 4 28 0 0 -5
15 -5 33 -2 17 4 47 4 65 0 17 -4 34 -3 37 2 3 4 16 4 28 0 12 -5 32 -5 44 0
13 5 25 4 28 -1 3 -5 18 -5 35 0 17 5 30 5 30 0 0 -4 16 -4 34 0 19 4 37 6 39
3 4 -3 80 -5 137 -2 8 0 24 0 35 -1 27 -1 87 -1 103 -1 17 1 38 1 65 1 12 0
33 1 47 3 14 2 36 0 50 -4 14 -3 35 -3 46 1 11 5 27 4 34 0 7 -5 24 -4 36 0
13 5 26 5 28 1 3 -5 20 -5 38 -2 18 4 47 5 63 1 17 -3 44 -3 60 0 17 3 45 3
63 -1 17 -4 32 -3 32 1 0 5 13 5 30 0 18 -5 32 -5 36 1 3 5 10 6 16 3 5 -3 44
-6 86 -5 43 1 85 1 95 1 33 1 67 0 85 0 9 0 31 0 47 0 l30 0 -25 -20 c-14 -10
-36 -28 -50 -38 -26 -20 -467 -335 -507 -362 -297 -203 -297 -204 -301 -212
-2 -5 -7 -8 -12 -8 -5 0 -66 -40 -137 -88 -70 -48 -135 -91 -144 -94 -10 -4
-25 1 -35 10 -11 9 -31 23 -46 31 -16 8 -28 18 -28 23 0 4 -5 8 -10 8 -6 0
-28 12 -49 28 -21 15 -47 33 -57 39 -11 7 -51 35 -91 63 -40 27 -77 50 -82 50
-5 0 -11 4 -13 8 -1 5 -46 38 -98 74 -162 110 -284 196 -310 217 -14 12 -31
21 -37 21 -7 0 -13 4 -13 9 0 5 -15 18 -32 29 -18 12 -60 41 -93 66 -33 25
-67 49 -75 53 -8 3 -17 9 -20 13 -3 3 -26 22 -53 42 -46 35 -47 54 -1 37 11
-4 27 -3 34 1z m-1147 -4165 c15 -1 27 3 27 7 0 4 11 3 25 -2 16 -6 26 -6 31
1 4 7 10 7 16 1 7 -7 19 -7 34 -2 15 6 24 6 24 0 0 -5 9 -6 22 -1 13 4 35 5
50 0 16 -4 30 -3 34 2 3 6 12 6 22 0 10 -6 23 -6 34 0 10 5 18 6 18 2 0 -4 11
-8 25 -8 14 0 25 2 25 5 0 7 78 3 96 -4 7 -3 16 -1 19 5 4 6 13 6 23 0 10 -6
23 -6 34 0 10 5 18 6 18 2 0 -4 11 -8 25 -8 14 0 25 2 25 5 0 7 78 3 96 -4 7
-3 16 -1 19 5 4 6 13 6 23 0 10 -6 23 -6 34 0 10 5 18 6 18 2 0 -4 11 -8 25
-8 14 0 25 2 25 5 0 7 78 3 96 -4 7 -3 16 -1 19 5 4 6 13 6 23 0 10 -6 23 -6
34 0 10 5 18 6 18 2 0 -4 11 -8 25 -8 14 0 25 2 25 5 0 7 78 3 96 -4 7 -3 16
-1 19 4 4 6 13 7 23 1 11 -6 24 -6 35 0 9 6 17 6 17 2 0 -4 11 -8 25 -8 14 0
25 2 25 5 0 7 78 3 96 -4 7 -3 16 -1 19 5 4 6 13 6 23 0 10 -6 23 -6 34 0 10
5 18 6 18 2 0 -4 11 -8 25 -8 14 0 25 2 25 5 0 7 78 3 96 -4 7 -3 16 -1 19 5
4 6 13 6 23 0 10 -6 23 -6 34 0 10 5 18 6 18 2 0 -4 11 -8 25 -8 14 0 25 2 25
5 0 7 78 3 96 -4 7 -3 16 -1 19 5 4 6 13 6 23 0 10 -6 23 -6 34 0 10 5 18 6
18 2 0 -4 11 -8 25 -8 14 0 25 2 25 5 0 7 78 3 97 -4 7 -3 13 -1 13 4 0 6 9 6
23 2 22 -9 75 -7 84 2 3 3 16 1 29 -4 15 -6 26 -6 30 1 4 8 9 8 17 0 7 -7 16
-7 29 0 12 6 18 6 18 0 0 -7 8 -7 23 -2 12 5 31 5 42 1 11 -4 25 -3 32 2 7 5
14 5 18 -2 4 -7 12 -7 26 0 12 7 19 7 19 1 0 -7 8 -7 23 -2 12 5 31 5 42 1 11
-4 25 -3 32 2 7 5 14 5 18 -2 4 -7 12 -7 26 0 12 7 19 7 19 1 0 -7 8 -7 23 -2
12 5 31 5 42 1 11 -4 25 -3 32 2 7 5 14 5 18 -2 4 -7 12 -7 26 0 12 7 19 7 19
1 0 -7 8 -7 23 -2 12 5 31 5 42 1 11 -4 25 -3 32 2 7 5 14 5 18 -2 4 -7 12 -7
26 0 12 7 19 7 19 1 0 -7 8 -7 23 -2 12 5 31 5 42 1 11 -4 25 -3 32 2 7 5 14
5 18 -2 4 -7 12 -7 26 0 12 7 19 7 19 1 0 -7 8 -7 23 -2 12 5 31 5 42 1 11 -4
25 -3 32 2 7 5 14 5 18 -2 4 -7 12 -7 26 0 12 7 19 7 19 1 0 -7 8 -7 23 -2 12
5 31 5 42 1 11 -4 25 -3 32 2 7 5 14 5 18 -2 4 -7 12 -7 26 0 12 7 19 7 19 1
0 -7 8 -7 23 -2 12 5 31 5 42 1 11 -4 25 -3 32 2 7 5 14 5 18 -2 4 -7 12 -7
26 0 12 7 19 7 19 1 0 -7 8 -7 23 -2 12 5 31 5 42 1 11 -4 25 -3 32 2 7 5 14
5 18 -2 4 -7 12 -7 26 0 12 7 19 7 19 1 0 -7 8 -7 23 -2 12 5 31 5 42 1 11 -4
25 -3 32 2 7 5 14 5 18 -2 4 -7 12 -7 26 0 12 7 19 7 19 1 0 -7 8 -7 23 -2 12
5 31 5 42 1 11 -4 25 -3 32 2 7 5 14 5 18 -2 4 -7 12 -7 26 0 12 7 19 7 19 1
0 -7 8 -7 23 -2 12 5 31 5 42 1 11 -4 25 -3 32 2 7 5 14 5 18 -2 4 -7 12 -7
26 0 12 7 19 7 19 1 0 -7 8 -7 23 -2 12 5 31 5 42 1 11 -4 25 -3 32 2 7 5 14
5 18 -2 4 -7 12 -7 26 0 12 7 19 7 19 1 0 -6 9 -7 22 -2 24 9 51 -16 168 -149
30 -35 65 -74 78 -86 12 -13 22 -26 22 -30 0 -4 15 -23 33 -44 52 -60 67 -80
67 -89 0 -5 4 -11 8 -13 7 -3 109 -142 148 -202 14 -22 15 -28 4 -24 -8 3 -23
1 -32 -3 -10 -6 -19 -5 -23 1 -3 5 -15 6 -28 1 -12 -5 -34 -5 -49 0 -16 4 -30
3 -33 -2 -4 -5 -13 -5 -24 1 -10 5 -21 7 -24 4 -7 -7 -163 -8 -175 0 -6 3 -13
2 -17 -4 -4 -7 -12 -7 -25 0 -13 7 -21 7 -25 0 -4 -7 -12 -7 -23 -1 -10 6 -23
6 -34 0 -10 -6 -19 -5 -23 1 -3 5 -15 6 -28 1 -12 -5 -34 -5 -49 0 -16 4 -30
3 -33 -2 -4 -5 -14 -5 -25 1 -13 7 -21 7 -25 0 -4 -7 -12 -7 -23 -1 -10 6 -23
6 -34 0 -10 -6 -19 -5 -23 1 -3 5 -15 6 -28 1 -12 -5 -34 -5 -49 0 -16 4 -30
3 -33 -2 -4 -5 -14 -5 -25 1 -12 6 -21 7 -25 0 -3 -6 -15 -6 -30 0 -15 6 -27
6 -30 -1 -4 -6 -13 -6 -23 0 -10 6 -23 6 -34 0 -10 -6 -19 -5 -23 1 -4 6 -11
8 -16 4 -14 -8 -113 -9 -127 0 -6 3 -13 2 -17 -4 -4 -6 -12 -7 -24 -1 -10 6
-23 6 -31 1 -8 -5 -18 -6 -24 -3 -14 9 -67 9 -73 0 -2 -4 -13 -3 -23 3 -13 7
-21 7 -25 0 -5 -8 -11 -8 -19 -1 -7 6 -15 9 -18 6 -8 -8 -184 -9 -196 -1 -6 3
-13 2 -17 -4 -4 -7 -12 -7 -25 0 -13 7 -21 7 -25 0 -4 -7 -12 -7 -23 -1 -10 6
-23 6 -34 0 -10 -6 -19 -5 -23 1 -3 5 -15 6 -28 1 -12 -5 -34 -5 -49 0 -16 4
-30 3 -33 -2 -4 -5 -14 -5 -25 1 -13 7 -21 7 -25 0 -4 -7 -12 -7 -23 -1 -10 6
-23 6 -34 0 -10 -6 -19 -5 -23 1 -3 5 -15 6 -28 1 -12 -5 -34 -5 -49 0 -16 4
-30 3 -33 -2 -4 -5 -14 -5 -25 1 -12 6 -21 7 -25 0 -3 -6 -15 -6 -30 0 -15 6
-27 6 -30 -1 -4 -6 -13 -6 -23 0 -10 6 -23 6 -34 0 -10 -6 -19 -5 -23 1 -4 6
-11 8 -16 4 -14 -8 -113 -9 -127 0 -6 3 -13 2 -17 -4 -4 -6 -12 -7 -24 -1 -10
6 -23 6 -31 1 -8 -5 -19 -6 -24 -3 -13 8 -59 8 -72 0 -5 -3 -16 -2 -24 3 -9 5
-19 5 -26 -1 -7 -6 -15 -6 -18 -1 -3 5 -26 6 -51 2 -25 -4 -48 -3 -51 2 -3 4
-10 6 -15 2 -14 -8 -113 -9 -127 0 -6 3 -13 2 -17 -4 -4 -7 -12 -7 -23 -1 -10
6 -23 6 -34 0 -10 -6 -19 -5 -23 1 -4 6 -11 8 -16 4 -14 -8 -113 -9 -127 0 -6
3 -13 2 -17 -4 -4 -6 -13 -7 -23 -1 -11 6 -24 6 -34 0 -11 -6 -19 -6 -23 1 -4
7 -12 7 -25 0 -13 -7 -21 -7 -25 0 -4 7 -12 7 -25 0 -12 -6 -21 -7 -25 0 -3 5
-15 6 -28 1 -12 -5 -34 -5 -49 0 -16 4 -30 3 -33 -2 -4 -5 -14 -5 -25 1 -13 7
-21 7 -25 0 -4 -7 -12 -7 -23 -1 -10 6 -23 6 -34 0 -10 -6 -19 -5 -23 1 -3 5
-15 6 -28 1 -12 -5 -34 -5 -49 0 -16 4 -30 3 -33 -2 -4 -5 -14 -5 -25 1 -13 7
-21 7 -25 0 -4 -7 -12 -7 -23 -1 -10 6 -23 6 -34 0 -10 -6 -19 -5 -23 1 -3 5
-15 6 -28 1 -12 -5 -34 -5 -49 0 -16 4 -30 3 -33 -2 -4 -5 -14 -5 -23 -1 -17
9 -70 7 -79 -2 -3 -3 -16 -1 -29 4 -14 6 -26 6 -29 -1 -4 -5 -12 -6 -18 -2 -6
4 -21 7 -32 7 -11 0 -26 -3 -32 -7 -6 -4 -14 -3 -18 2 -3 6 -15 7 -28 2 -12
-5 -31 -5 -42 -1 -11 4 -25 3 -32 -2 -7 -5 -14 -5 -17 1 -4 6 -15 7 -29 2 -12
-5 -32 -5 -44 0 -13 5 -25 4 -28 -2 -4 -5 -12 -6 -18 -2 -6 4 -21 7 -32 7 -11
0 -26 -3 -32 -7 -6 -4 -14 -3 -18 2 -3 6 -15 7 -28 2 -12 -5 -31 -5 -42 -1
-11 4 -24 5 -29 2 -12 -7 -166 -6 -173 2 -3 3 -14 1 -24 -5 -13 -6 -19 -6 -19
0 0 7 -9 7 -25 1 -14 -5 -25 -6 -25 -1 0 5 -12 6 -27 2 -16 -4 -40 -4 -55 0
-16 4 -28 4 -28 -1 0 -6 -9 -6 -23 -1 -14 5 -30 5 -40 0 -11 -7 -17 -6 -17 0
0 7 -8 7 -25 1 -14 -5 -25 -6 -25 -1 0 5 -12 6 -27 2 -16 -4 -40 -4 -55 0 -16
4 -28 4 -28 -1 0 -6 -10 -6 -25 0 -16 6 -26 6 -31 -1 -4 -7 -10 -7 -16 -1 -7
7 -19 7 -34 2 -14 -6 -24 -6 -24 -1 0 5 -12 6 -27 2 -16 -4 -40 -4 -55 0 -16
4 -28 4 -28 -1 0 -4 -9 -6 -20 -3 -24 6 -26 26 -5 43 8 7 15 18 15 25 0 8 3
15 8 17 4 2 20 23 37 48 16 25 32 47 36 50 3 3 18 23 35 45 63 86 143 183 238
290 44 50 89 100 100 113 11 12 22 19 25 15 3 -5 18 -8 34 -8z"/>
</g>
</svg>
